<svg xmlns="http://www.w3.org/2000/svg" width="65" height="65" viewBox="0 0 65 65">
    <defs>
        <linearGradient id="j4bb2zfila" x1="100%" x2="0%" y1="50%" y2="50%">
            <stop offset="0%" stop-color="#FFE211"/>
            <stop offset="100%" stop-color="#FFC107"/>
        </linearGradient>
        <linearGradient id="e8ils6xovb" x1="100%" x2="0%" y1="50%" y2="50%">
            <stop offset="0%" stop-color="#DE7300"/>
            <stop offset="100%" stop-color="#FFA000"/>
        </linearGradient>
    </defs>
    <g fill="none" fill-rule="evenodd">
        <g>
            <g>
                <g>
                    <g fill="#FFF8E6" transform="translate(-419 -164) translate(419 164)">
                        <rect width="64.8" height="64.8" rx="14.4"/>
                    </g>
                </g>
                <g fill-rule="nonzero" transform="translate(-419 -164) translate(419 164) translate(10.8 19.2)">
                    <path fill="url(#j4bb2zfila)" d="M39.424 3.609c-1.98 0-3.584 1.604-3.584 3.584 0 .376.061.749.18 1.106l-2.908 1.847c-1.913 1.22-4.437.815-5.874-.94L24.39 5.72c.453-.61.699-1.35.699-2.111 0-1.98-1.605-3.584-3.584-3.584-1.98 0-3.584 1.605-3.584 3.584 0 .76.245 1.5.699 2.11l-2.85 3.486c-1.437 1.755-3.959 2.16-5.872.941L6.989 8.3c.118-.357.178-.73.179-1.106 0-1.98-1.604-3.584-3.583-3.585C1.605 3.608 0 5.212 0 7.192c0 1.858 1.42 3.408 3.27 3.57L5.39 23.468c.071.432.445.749.883.749h30.464c.438 0 .812-.317.883-.75l2.119-12.704c1.971-.177 3.426-1.919 3.25-3.89-.166-1.846-1.711-3.26-3.564-3.264z"/>
                    <ellipse cx="21.504" cy="23.321" fill="url(#e8ils6xovb)" rx="15.232" ry="4.48"/>
                    <path fill="#FFD54F" d="M21.504 28.697c-8.016 0-16.128-1.846-16.128-5.376 0-3.53 8.112-5.376 16.128-5.376s16.128 1.846 16.128 5.376c0 3.53-8.112 5.376-16.128 5.376zm0-8.96c-9.412 0-14.336 2.33-14.336 3.584s4.924 3.584 14.336 3.584c9.412 0 14.336-2.33 14.336-3.584 0-1.255-4.924-3.584-14.336-3.584z"/>
                </g>
            </g>
        </g>
    </g>
</svg>
